<svg width="150" height="150" xmlns="http://www.w3.org/2000/svg" xmlns:xlink="http://www.w3.org/1999/xlink">
  <defs>
    <pattern id="pattern" x="0" y="0" width="15" height="15" patternUnits="userSpaceOnUse">
      <circle cx="7.5" cy="7.5" r="1.5" fill="#dbdada" />
    </pattern>
    <clipPath id="roundedCorners">
      <rect width="150" height="150" rx="8" ry="8" />
    </clipPath>  
  </defs>
 
    <g transform="translate(0, 0)">
         <path d="M 10 9 L 140 9 Z" 
            fill="none" stroke="#252525ff" stroke-width="15" stroke-linecap="round" stroke-linejoin="round"/>
         <path d="M 11 9 L 13 9 Z" 
            fill="none" stroke="#ffd300" stroke-width="10" stroke-linecap="round" stroke-linejoin="round"/>
         <path d="M 30 9 L 120 9 Z" 
            fill="none" stroke="#fbf9f9" stroke-width="10" stroke-linecap="round" stroke-linejoin="round"/>
         <path d="M 8 24 L 142 24 L 142 142 L 8 142 Z" 
            fill="none" stroke="#fbf9f9" stroke-width="10" stroke-linecap="round" stroke-linejoin="round"/>
         <path d="M 8 24 L 142 24 L 142 142 L 8 142 Z" 
           width="100%" height="100%" fill="#fbf9f9"  />
         <path d="M 5 20 L 146 20 L 146 146 L 5 146 Z" 
           width="100%" height="100%" fill="url(#pattern)" clip-path="url(#roundedCorners)"  />
         <path d="M 12 25 L 70 30 L 65 75 L 7 70 Z" 
            fill="none" stroke="#252525ff" stroke-width="5" stroke-linecap="round" stroke-linejoin="round"/>
         <path d="M 20 50 L 55 50 Z" 
            fill="none" stroke="#252525ff" stroke-width="5" stroke-linecap="round" stroke-linejoin="round"/>
         <path d="M 75 65 L 135 60 L 140 135 L 80 140 Z" 
            fill="none" stroke="#ffc0ca" stroke-width="5" stroke-linecap="round" stroke-linejoin="round"/>
         <path d="M 10 130 L 25 80 L 70 135 Z" 
            fill="none" stroke="#6dbbf7ff" stroke-width="5" stroke-linecap="round" stroke-linejoin="round"/>
         <path d="M 80 35 L 135 43 Z" 
            fill="none" stroke="#bcee6cff" stroke-width="5" stroke-linecap="round" stroke-linejoin="round"/>


    </g>
 
</svg>
